<svg width="256" height="256" viewBox="0 0 256 256" fill="none" xmlns="http://www.w3.org/2000/svg">
<g filter="url(#filter0_d_1_15)">
<g filter="url(#filter1_d_1_15)">
<path fill-rule="evenodd" clip-rule="evenodd" d="M230 35.1221L230 220.663H210V137.892H108V117.892H210V35.1221H230ZM108 35.1221H128V110.398H108V35.1221ZM108 145.724H128V221H108V145.724Z" fill="url(#paint0_linear_1_15)"/>
<path fill-rule="evenodd" clip-rule="evenodd" d="M192.232 195.894C174.341 214.451 149.187 226 121.326 226C67.022 226 23 182.124 23 128C23 73.8761 67.022 30 121.326 30C149.187 30 174.341 41.549 192.232 60.1057C185.699 62.7055 179.63 66.2146 174.181 70.4763C160.234 57.7102 141.632 49.9171 121.203 49.9171C77.936 49.9171 42.8608 84.876 42.8608 128C42.8608 171.124 77.936 206.083 121.203 206.083C141.632 206.083 160.234 198.29 174.181 185.524C179.63 189.785 185.699 193.295 192.232 195.894Z" fill="url(#paint1_linear_1_15)"/>
</g>
</g>
<defs>
<filter id="filter0_d_1_15" x="-2" y="-2" width="264" height="264" filterUnits="userSpaceOnUse" color-interpolation-filters="sRGB">
<feFlood flood-opacity="0" result="BackgroundImageFix"/>
<feColorMatrix in="SourceAlpha" type="matrix" values="0 0 0 0 0 0 0 0 0 0 0 0 0 0 0 0 0 0 127 0" result="hardAlpha"/>
<feOffset dx="2" dy="2"/>
<feGaussianBlur stdDeviation="2"/>
<feComposite in2="hardAlpha" operator="out"/>
<feColorMatrix type="matrix" values="0 0 0 0 0 0 0 0 0 0 0 0 0 0 0 0 0 0 0.25 0"/>
<feBlend mode="normal" in2="BackgroundImageFix" result="effect1_dropShadow_1_15"/>
<feBlend mode="normal" in="SourceGraphic" in2="effect1_dropShadow_1_15" result="shape"/>
</filter>
<filter id="filter1_d_1_15" x="19" y="26" width="219" height="208" filterUnits="userSpaceOnUse" color-interpolation-filters="sRGB">
<feFlood flood-opacity="0" result="BackgroundImageFix"/>
<feColorMatrix in="SourceAlpha" type="matrix" values="0 0 0 0 0 0 0 0 0 0 0 0 0 0 0 0 0 0 127 0" result="hardAlpha"/>
<feOffset dx="2" dy="2"/>
<feGaussianBlur stdDeviation="3"/>
<feComposite in2="hardAlpha" operator="out"/>
<feColorMatrix type="matrix" values="0 0 0 0 0 0 0 0 0 0 0 0 0 0 0 0 0 0 0.25 0"/>
<feBlend mode="normal" in2="BackgroundImageFix" result="effect1_dropShadow_1_15"/>
<feBlend mode="normal" in="SourceGraphic" in2="effect1_dropShadow_1_15" result="shape"/>
</filter>
<linearGradient id="paint0_linear_1_15" x1="41.8316" y1="35.1221" x2="268.182" y2="290.012" gradientUnits="userSpaceOnUse">
<stop stop-color="#35CFFF"/>
<stop offset="1" stop-color="#070C96"/>
</linearGradient>
<linearGradient id="paint1_linear_1_15" x1="23" y1="30" x2="229.654" y2="226" gradientUnits="userSpaceOnUse">
<stop stop-color="#EB6FFF"/>
<stop offset="1" stop-color="#95007D"/>
</linearGradient>
</defs>
</svg>
