<?xml version="1.0" standalone="no"?>
<!DOCTYPE svg PUBLIC "-//W3C//DTD SVG 20010904//EN"
 "http://www.w3.org/TR/2001/REC-SVG-20010904/DTD/svg10.dtd">
<svg version="1.0" xmlns="http://www.w3.org/2000/svg"
 width="256.000000pt" height="256.000000pt" viewBox="0 0 256.000000 256.000000"
 preserveAspectRatio="xMidYMid meet">
<metadata>
Created by potrace 1.14, written by Peter Selinger 2001-2017
</metadata>
<g transform="translate(0.000000,256.000000) scale(0.100000,-0.100000)"
fill="#000000" stroke="none">
<path d="M1098 2255 c-2 -2 -24 -6 -50 -9 -64 -8 -201 -52 -273 -89 -185 -92
-347 -254 -439 -434 -154 -306 -137 -679 46 -969 33 -51 124 -162 158 -190 14
-12 35 -30 47 -40 53 -46 64 -54 72 -54 5 0 11 -4 13 -8 5 -15 201 -108 241
-116 20 -4 37 -10 37 -14 0 -4 17 -8 37 -9 21 -1 39 -6 40 -10 2 -5 20 -7 39
-5 24 3 39 0 45 -9 7 -11 9 -11 9 -1 0 8 5 10 12 6 13 -8 127 -8 203 1 62 8
168 33 212 52 19 7 39 11 45 7 7 -4 8 -3 4 4 -4 7 -3 12 3 12 5 0 17 3 27 7
13 5 15 3 9 -7 -5 -9 -4 -11 4 -6 6 4 9 11 6 16 -3 5 3 11 14 15 11 3 36 17
56 31 20 13 42 26 48 27 7 1 19 10 28 19 9 10 18 17 20 15 2 -1 28 21 57 49
l54 51 -74 42 c-40 23 -80 46 -89 53 -13 9 -27 3 -75 -34 -111 -85 -302 -158
-390 -149 -8 1 -11 85 -11 290 0 159 -3 292 -6 297 -4 7 -122 10 -184 5 -10
-1 -13 -67 -13 -296 l0 -295 -27 6 c-53 11 -98 27 -151 50 -29 13 -55 24 -58
24 -12 0 -124 82 -124 90 0 6 -6 10 -13 10 -19 0 -49 35 -40 45 5 4 3 5 -3 2
-18 -10 -130 136 -118 154 3 5 0 8 -7 7 -7 -2 -13 2 -14 7 0 6 -10 28 -22 50
-28 54 -56 152 -47 166 4 8 3 9 -4 5 -8 -5 -12 1 -12 14 0 14 4 19 13 15 6 -4
5 -1 -4 7 -21 17 -23 29 -7 39 11 7 11 9 -1 9 -11 0 -12 20 -7 103 6 111 15
167 25 167 3 0 7 12 8 26 0 15 5 29 10 33 4 3 10 15 11 26 10 53 111 217 130
210 7 -3 10 -1 7 5 -5 7 58 76 105 114 44 36 121 77 131 70 7 -4 9 -3 5 4 -10
16 13 25 30 11 12 -10 13 -9 8 6 -6 16 -3 17 22 11 21 -5 25 -4 14 4 -8 5 -12
10 -7 11 12 2 20 5 76 22 30 9 58 14 63 9 4 -4 9 -138 10 -297 l3 -290 40 0
c22 0 45 -4 51 -8 6 -3 14 -3 18 1 4 3 26 7 48 7 l42 0 -1 303 c-1 188 3 302
9 302 5 0 7 -3 5 -7 -3 -5 14 -8 36 -9 23 0 52 -4 65 -7 12 -4 30 -9 40 -11
35 -8 142 -54 152 -65 3 -4 18 -13 35 -21 29 -15 42 -24 94 -66 l25 -22 31 23
c16 12 53 35 80 50 28 15 54 29 58 32 8 5 -59 73 -95 98 -96 66 -144 94 -209
122 -66 28 -106 41 -221 70 -26 6 -284 14 -290 8z"/>
<path d="M2100 1795 l0 -415 -452 1 c-249 0 -479 -1 -510 -1 l-58 0 0 -100 0
-100 38 -1 c20 0 250 0 510 0 l472 0 0 -415 c0 -344 2 -415 13 -411 8 3 20 1
27 -3 8 -5 19 -6 25 -2 5 3 38 5 73 4 62 -3 62 -3 63 25 0 38 0 1737 0 1791
l-1 42 -100 0 -100 0 0 -415z"/>
<path d="M1300 2000 c8 -5 20 -10 25 -10 6 0 3 5 -5 10 -8 5 -19 10 -25 10 -5
0 -3 -5 5 -10z"/>
<path d="M1436 302 c-3 -5 1 -9 9 -9 8 0 12 4 9 9 -3 4 -7 8 -9 8 -2 0 -6 -4
-9 -8z"/>
</g>
</svg>
